<svg width="301" height="230" viewBox="0 0 301 230" fill="none" xmlns="http://www.w3.org/2000/svg">
<g filter="url(#filter0_f_1_7951)">
<ellipse cx="147.872" cy="186.812" rx="110.607" ry="21.3375" fill="#1F88F8" fill-opacity="0.35"/>
</g>
<path d="M149.087 229.402C212.435 229.402 263.788 178.049 263.788 114.701C263.788 51.3534 212.435 0 149.087 0C85.7396 0 34.3862 51.3534 34.3862 114.701C34.3862 178.049 85.7396 229.402 149.087 229.402Z" fill="url(#paint0_linear_1_7951)"/>
<g filter="url(#filter1_d_1_7951)">
<path d="M245.168 77.624L146.878 146.219L48.5869 77.624L138.564 14.8054C141.005 13.1047 143.907 12.1929 146.882 12.1929C149.856 12.1929 152.759 13.1047 155.199 14.8054L173.147 27.3528L177.846 30.6161L225.164 63.657L230.149 67.1569L245.168 77.624Z" fill="url(#paint1_linear_1_7951)"/>
</g>
<path d="M130.896 135.066L48.5869 193.594V77.624L130.896 135.066Z" fill="url(#paint2_linear_1_7951)"/>
<path d="M162.868 135.066L245.176 193.594V77.624L162.868 135.066Z" fill="url(#paint3_linear_1_7951)"/>
<path d="M48.5869 193.594L138.458 129.698C140.918 127.947 143.862 127.006 146.882 127.006C149.901 127.006 152.846 127.947 155.305 129.698L245.168 193.594H48.5869Z" fill="url(#paint4_linear_1_7951)"/>
<g filter="url(#filter2_d_1_7951)">
<path d="M58.9723 56.6099C43.9038 63.6586 27.7113 67.9977 11.1372 69.4281C13.3767 74.634 29.289 100.693 76.5249 122.165C77.8018 122.361 107.299 108.639 123.486 99.2293C122.936 100.015 73.205 81.7159 58.9723 56.6099Z" fill="url(#paint5_linear_1_7951)"/>
</g>
<path d="M60.1384 69.566C59.445 69.0849 58.5668 68.955 57.7638 69.2148L31.3998 77.7443C30.4553 78.0499 30.1188 79.2131 30.7543 79.9757C31.266 80.5898 32.1036 80.8243 32.8598 80.5653L59.8965 71.3048C60.6594 71.0435 60.801 70.0257 60.1384 69.566Z" fill="#C9DFFF"/>
<path d="M59.6814 80.0712C59.0127 79.4433 58.0529 79.2341 57.1835 79.5266L38.9321 85.6691C38.1273 85.9399 37.8432 86.9329 38.3828 87.5885C38.8238 88.1241 39.5503 88.3306 40.207 88.107L59.3535 81.5879C59.9999 81.3678 60.1791 80.5385 59.6814 80.0712Z" fill="#C9DFFF"/>
<path d="M69.4775 85.2731C68.7798 84.7143 67.8412 84.5596 67.001 84.865L45.9777 92.5059C45.1526 92.8058 44.9042 93.8526 45.5067 94.4911C45.9677 94.9797 46.6754 95.1464 47.306 94.915L69.2161 86.8748C69.8972 86.6248 70.0438 85.7266 69.4775 85.2731Z" fill="#C9DFFF"/>
<path d="M76.8274 101.044C76.1811 100.33 75.1625 100.086 74.2625 100.429L62.2476 105.014C61.5099 105.296 61.2439 106.203 61.7129 106.838C62.1525 107.434 62.9361 107.661 63.6261 107.394L76.5043 102.406C77.0597 102.191 77.227 101.486 76.8274 101.044Z" fill="#C9DFFF"/>
<g filter="url(#filter3_d_1_7951)">
<path d="M233.157 92.9507C251.428 101.498 271.063 106.759 291.16 108.494C288.444 114.806 269.149 146.404 211.873 172.44C210.325 172.678 174.558 156.039 154.93 144.629C155.597 145.582 215.899 123.393 233.157 92.9507Z" fill="url(#paint6_linear_1_7951)"/>
</g>
<path d="M231.743 108.661C232.584 108.078 233.649 107.92 234.623 108.235L266.59 118.578C267.736 118.948 268.144 120.359 267.373 121.284C266.753 122.028 265.737 122.313 264.82 121.998L232.037 110.77C231.111 110.453 230.94 109.219 231.743 108.661Z" fill="#C9DFFF"/>
<path d="M222.792 117.175C223.603 116.413 224.767 116.16 225.821 116.514L247.952 123.962C248.928 124.291 249.273 125.495 248.618 126.29C248.084 126.939 247.203 127.19 246.406 126.919L223.19 119.014C222.406 118.747 222.189 117.741 222.792 117.175Z" fill="#C9DFFF"/>
<path d="M213.594 124.242C214.44 123.564 215.578 123.377 216.597 123.747L242.089 133.012C243.09 133.376 243.391 134.645 242.66 135.419C242.101 136.012 241.243 136.214 240.478 135.933L213.911 126.184C213.085 125.881 212.907 124.792 213.594 124.242Z" fill="#C9DFFF"/>
<path d="M192.896 138.382C193.68 137.516 194.915 137.219 196.007 137.636L210.575 143.195C211.47 143.537 211.792 144.637 211.224 145.407C210.691 146.129 209.741 146.405 208.904 146.081L193.288 140.033C192.615 139.772 192.412 138.917 192.896 138.382Z" fill="#C9DFFF"/>
<path d="M202.406 130.831C203.269 130.29 204.333 130.178 205.289 130.527L238.857 142.801C239.93 143.193 240.19 144.592 239.329 145.343C238.76 145.84 237.965 145.987 237.256 145.726L202.629 132.97C201.695 132.626 201.563 131.359 202.406 130.831Z" fill="#C9DFFF"/>
<path d="M84.0984 88.7204C83.3872 88.2742 82.5097 88.1819 81.7212 88.4702L54.0376 98.5922C53.1528 98.9157 52.9384 100.069 53.648 100.689C54.1173 101.099 54.7729 101.22 55.3576 101.005L83.9149 90.4847C84.685 90.201 84.7937 89.1565 84.0984 88.7204Z" fill="#C9DFFF"/>
<path d="M244.108 26.9985C244.108 29.644 241.964 31.7886 239.318 31.7886C236.673 31.7886 234.528 29.644 234.528 26.9985C234.528 24.3531 236.673 22.2085 239.318 22.2085C241.964 22.2085 244.108 24.3531 244.108 26.9985Z" stroke="url(#paint7_linear_1_7951)" stroke-width="2.61276"/>
<circle cx="69.489" cy="204.666" r="4.79006" stroke="url(#paint8_linear_1_7951)" stroke-width="2.61276"/>
<circle cx="216.675" cy="214.246" r="4.79006" stroke="url(#paint9_linear_1_7951)" stroke-width="2.61276"/>
<path d="M85.7462 31.932C86.2611 29.799 89.295 29.799 89.8099 31.932L91.5428 39.1108C91.7268 39.8731 92.322 40.4682 93.0842 40.6522L100.263 42.3851C102.396 42.9 102.396 45.9339 100.263 46.4488L93.0842 48.1817C92.322 48.3657 91.7268 48.9609 91.5428 49.7231L89.8099 56.9019C89.295 59.0349 86.2611 59.0349 85.7462 56.9019L84.0133 49.7231C83.8293 48.9609 83.2341 48.3657 82.4719 48.1817L75.2931 46.4488C73.1601 45.9339 73.1601 42.9 75.2931 42.3851L82.4719 40.6522C83.2341 40.4682 83.8293 39.8731 84.0133 39.1108L85.7462 31.932Z" fill="url(#paint10_linear_1_7951)"/>
<path d="M260.256 183.417C260.771 181.284 263.805 181.284 264.32 183.417L266.053 190.596C266.237 191.358 266.832 191.953 267.594 192.137L274.773 193.87C276.906 194.385 276.906 197.419 274.773 197.934L267.594 199.667C266.832 199.851 266.237 200.446 266.053 201.208L264.32 208.387C263.805 210.52 260.771 210.52 260.256 208.387L258.524 201.208C258.34 200.446 257.744 199.851 256.982 199.667L249.803 197.934C247.67 197.419 247.67 194.385 249.803 193.87L256.982 192.137C257.744 191.953 258.34 191.358 258.524 190.596L260.256 183.417Z" fill="url(#paint11_linear_1_7951)"/>
<path d="M37.6199 166.614C38.9439 166.402 40.0009 167.703 39.5226 168.956L36.2935 177.411C35.8152 178.664 34.1602 178.929 33.3145 177.888L27.6066 170.864C26.761 169.823 27.3589 168.258 28.6829 168.046L37.6199 166.614Z" fill="url(#paint12_linear_1_7951)"/>
<path d="M263.715 80.4219C263.384 79.1226 264.583 77.9519 265.874 78.3147L274.587 80.7633C275.878 81.126 276.292 82.7502 275.333 83.6867L268.855 90.0084C267.896 90.9449 266.282 90.4915 265.951 89.1922L263.715 80.4219Z" fill="url(#paint13_linear_1_7951)"/>
<defs>
<filter id="filter0_f_1_7951" x="15.4921" y="143.702" width="264.759" height="86.221" filterUnits="userSpaceOnUse" color-interpolation-filters="sRGB">
<feFlood flood-opacity="0" result="BackgroundImageFix"/>
<feBlend mode="normal" in="SourceGraphic" in2="BackgroundImageFix" result="shape"/>
<feGaussianBlur stdDeviation="10.8865" result="effect1_foregroundBlur_1_7951"/>
</filter>
<filter id="filter1_d_1_7951" x="45.1032" y="12.1929" width="203.549" height="140.993" filterUnits="userSpaceOnUse" color-interpolation-filters="sRGB">
<feFlood flood-opacity="0" result="BackgroundImageFix"/>
<feColorMatrix in="SourceAlpha" type="matrix" values="0 0 0 0 0 0 0 0 0 0 0 0 0 0 0 0 0 0 127 0" result="hardAlpha"/>
<feOffset dy="3.48368"/>
<feGaussianBlur stdDeviation="1.74184"/>
<feComposite in2="hardAlpha" operator="out"/>
<feColorMatrix type="matrix" values="0 0 0 0 0 0 0 0 0 0 0 0 0 0 0 0 0 0 0.25 0"/>
<feBlend mode="normal" in2="BackgroundImageFix" result="effect1_dropShadow_1_7951"/>
<feBlend mode="normal" in="SourceGraphic" in2="effect1_dropShadow_1_7951" result="shape"/>
</filter>
<filter id="filter2_d_1_7951" x="0.68617" y="49.6425" width="133.251" height="86.459" filterUnits="userSpaceOnUse" color-interpolation-filters="sRGB">
<feFlood flood-opacity="0" result="BackgroundImageFix"/>
<feColorMatrix in="SourceAlpha" type="matrix" values="0 0 0 0 0 0 0 0 0 0 0 0 0 0 0 0 0 0 127 0" result="hardAlpha"/>
<feOffset dy="3.48368"/>
<feGaussianBlur stdDeviation="5.22552"/>
<feComposite in2="hardAlpha" operator="out"/>
<feColorMatrix type="matrix" values="0 0 0 0 0.0196078 0 0 0 0 0.168627 0 0 0 0 0.396078 0 0 0 0.15 0"/>
<feBlend mode="normal" in2="BackgroundImageFix" result="effect1_dropShadow_1_7951"/>
<feBlend mode="normal" in="SourceGraphic" in2="effect1_dropShadow_1_7951" result="shape"/>
</filter>
<filter id="filter3_d_1_7951" x="134.844" y="91.2088" width="165.841" height="109.103" filterUnits="userSpaceOnUse" color-interpolation-filters="sRGB">
<feFlood flood-opacity="0" result="BackgroundImageFix"/>
<feColorMatrix in="SourceAlpha" type="matrix" values="0 0 0 0 0 0 0 0 0 0 0 0 0 0 0 0 0 0 127 0" result="hardAlpha"/>
<feOffset dx="-5.28021" dy="13.0638"/>
<feGaussianBlur stdDeviation="7.40282"/>
<feComposite in2="hardAlpha" operator="out"/>
<feColorMatrix type="matrix" values="0 0 0 0 0.021441 0 0 0 0 0.168056 0 0 0 0 0.395833 0 0 0 0.15 0"/>
<feBlend mode="normal" in2="BackgroundImageFix" result="effect1_dropShadow_1_7951"/>
<feBlend mode="normal" in="SourceGraphic" in2="effect1_dropShadow_1_7951" result="shape"/>
</filter>
<linearGradient id="paint0_linear_1_7951" x1="148.203" y1="-37.3495" x2="150.553" y2="365.463" gradientUnits="userSpaceOnUse">
<stop stop-color="#21262D"/>
<stop offset="1" stop-color="#BCD8FF"/>
</linearGradient>
<linearGradient id="paint1_linear_1_7951" x1="146.878" y1="12.1929" x2="146.878" y2="146.219" gradientUnits="userSpaceOnUse">
<stop stop-color="#EDF4FF"/>
<stop offset="1" stop-color="#ABCCFF"/>
</linearGradient>
<linearGradient id="paint2_linear_1_7951" x1="89.7413" y1="77.624" x2="89.7413" y2="193.594" gradientUnits="userSpaceOnUse">
<stop stop-color="#ABCCFF"/>
<stop offset="1" stop-color="#70A8FF"/>
</linearGradient>
<linearGradient id="paint3_linear_1_7951" x1="204.022" y1="77.624" x2="204.022" y2="193.594" gradientUnits="userSpaceOnUse">
<stop stop-color="#ABCCFF"/>
<stop offset="1" stop-color="#70A8FF"/>
</linearGradient>
<linearGradient id="paint4_linear_1_7951" x1="146.878" y1="127.006" x2="146.878" y2="193.594" gradientUnits="userSpaceOnUse">
<stop stop-color="#70A8FF"/>
<stop offset="1" stop-color="#5597FD"/>
</linearGradient>
<linearGradient id="paint5_linear_1_7951" x1="23.3301" y1="85.7857" x2="96.9228" y2="71.4155" gradientUnits="userSpaceOnUse">
<stop stop-color="#C6DDFF"/>
<stop offset="1" stop-color="white"/>
</linearGradient>
<linearGradient id="paint6_linear_1_7951" x1="276.375" y1="128.328" x2="187.139" y2="110.903" gradientUnits="userSpaceOnUse">
<stop stop-color="#C6DDFF"/>
<stop offset="1" stop-color="white"/>
</linearGradient>
<linearGradient id="paint7_linear_1_7951" x1="231.825" y1="23.1883" x2="250.876" y2="39.6995" gradientUnits="userSpaceOnUse">
<stop stop-color="#94BFFF"/>
<stop offset="1" stop-color="#4C94FE"/>
</linearGradient>
<linearGradient id="paint8_linear_1_7951" x1="61.9955" y1="200.856" x2="81.0468" y2="217.367" gradientUnits="userSpaceOnUse">
<stop stop-color="#94BFFF"/>
<stop offset="1" stop-color="#4C94FE"/>
</linearGradient>
<linearGradient id="paint9_linear_1_7951" x1="209.181" y1="210.436" x2="228.232" y2="226.947" gradientUnits="userSpaceOnUse">
<stop stop-color="#94BFFF"/>
<stop offset="1" stop-color="#4C94FE"/>
</linearGradient>
<linearGradient id="paint10_linear_1_7951" x1="87.7781" y1="23.5149" x2="87.7781" y2="65.319" gradientUnits="userSpaceOnUse">
<stop stop-color="#70A8FF"/>
<stop offset="1" stop-color="#5597FD"/>
</linearGradient>
<linearGradient id="paint11_linear_1_7951" x1="262.288" y1="175" x2="262.288" y2="216.804" gradientUnits="userSpaceOnUse">
<stop stop-color="#70A8FF"/>
<stop offset="1" stop-color="#5597FD"/>
</linearGradient>
<linearGradient id="paint12_linear_1_7951" x1="40.5989" y1="166.137" x2="27.0811" y2="177.122" gradientUnits="userSpaceOnUse">
<stop stop-color="#70A8FF"/>
<stop offset="1" stop-color="#5597FD"/>
</linearGradient>
<linearGradient id="paint13_linear_1_7951" x1="262.97" y1="77.4985" x2="275.136" y2="89.9639" gradientUnits="userSpaceOnUse">
<stop stop-color="#70A8FF"/>
<stop offset="1" stop-color="#5597FD"/>
</linearGradient>
</defs>
</svg>
